<svg version="1.0" xmlns="http://www.w3.org/2000/svg" width="512.000000pt" height="512.000000pt" viewBox="0 0 512.000000 512.000000" preserveAspectRatio="xMidYMid meet">

<g transform="translate(0.000000,512.000000) scale(0.100000,-0.100000)" fill="#ffffff" stroke="none">
<path d="M442 4465 c-215 -47 -377 -205 -427 -420 -22 -91 -22 -2880 0 -2971 53 -226 231 -389 463 -424 45 -7 746 -10 2127 -8 1972 3 2062 4 2115 21 197 66 340 218 385 408 22 96 22 2882 0 2978 -49 207 -219 372 -430 416 -101 21 -4135 21 -4233 0z m4233 -312 c74 -40 129 -114 140 -189 l6 -39 -1018 -678 c-560 -372 -1043 -687 -1073 -699 -80 -32 -260 -32 -340 0 -30 12 -513 327 -1072 699 -1126 750 -1038 682 -997 773 34 76 100 132 174 151 17 4 955 6 2085 6 l2055 -2 40 -22z m-3436 -1212 c511 -341 951 -631 979 -645 101 -51 194 -70 342 -70 150 0 240 19 349 73 32 17 469 304 972 638 503 335 920 613 927 617 10 6 12 -230 10 -1211 -3 -1166 -4 -1219 -22 -1253 -26 -49 -74 -98 -121 -123 l-40 -22 -2075 0 -2075 0 -40 22 c-53 28 -99 78 -124 133 -20 44 -21 60 -21 1253 0 664 2 1207 5 1207 3 0 423 -279 934 -619z" fill="#ffffff"/>
</g>
</svg>